<svg xmlns="http://www.w3.org/2000/svg" width="256" height="256" viewBox="0 0 100 100"><rect width="100" height="100" rx="50" fill="#e76eb2"></rect><path d="M68.23 79.45L60.75 79.45Q60.75 75.84 60.66 72.45Q60.58 69.05 60.41 65.69L60.41 65.69L39.68 65.69Q39.51 69.05 39.42 72.45Q39.34 75.84 39.34 79.45L39.34 79.45L31.77 79.45Q31.85 67.59 33.27 56.88Q34.69 46.17 37.14 38.09Q39.59 30.00 42.91 25.27Q46.22 20.54 50 20.54L50 20.54Q53.87 20.54 57.14 25.27Q60.41 30.00 62.86 38.09Q65.31 46.17 66.73 56.88Q68.15 67.59 68.23 79.45L68.23 79.45ZM50 23.98L50 23.98Q48.19 23.98 46.56 26.87Q44.93 29.75 43.64 34.82Q42.35 39.89 41.40 46.82Q40.45 53.74 39.94 61.82L39.94 61.82L60.15 61.82Q59.63 53.74 58.64 46.82Q57.65 39.89 56.32 34.82Q54.99 29.75 53.40 26.87Q51.81 23.98 50 23.98Z" fill="#fff"></path></svg>